<svg xmlns="http://www.w3.org/2000/svg" data-name="Layer 3" viewBox="0 0 51.84 51.84"><defs><linearGradient id="a" x1="26.04" x2="25.78" y1="55.2" y2="-2.2" gradientUnits="userSpaceOnUse"><stop offset="0" stop-color="#4162f1"/><stop offset="0" stop-color="#4162f1"/><stop offset=".5" stop-color="#e24321"/><stop offset="1" stop-color="#f8dd4b"/></linearGradient></defs><path d="M40 27.21h-2.09v-2.07a.39.39 0 0 0-.39-.39c-6.74 0-10.68 1.91-11.59 2.4-.91-.5-4.84-2.4-11.59-2.4a.39.39 0 0 0-.39.39v2.07h-2.09a.39.39 0 0 0-.39.39v14.95c0 .22.18.39.39.39h28.15c.22 0 .39-.18.39-.39V27.6a.39.39 0 0 0-.39-.39Zm-13.69.62c.86-.45 4.59-2.23 10.8-2.3v14.16c-6.15.14-9.5 1.49-10.8 2.17V27.83Zm-11.58-2.3c6.21.07 9.94 1.84 10.8 2.3v14.03c-1.34-.7-4.68-2.03-10.8-2.17V25.53Zm-2.49 2.46h1.7v12.09c0 .22.17.39.39.39 5.11.07 8.3 1.01 9.93 1.67H12.24V27.98ZM39.6 42.15H27.57c1.67-.69 4.82-1.6 9.94-1.67.22 0 .39-.18.39-.39V28h1.7v14.16ZM11.73 13.98l8.24 2.46v5.32c0 .1.04.2.11.27.11.12 1.23 1.16 5.84 1.16s5.73-1.04 5.84-1.16c.07-.07.11-.17.11-.27v-5.32l4.04-1.21v3.48c-.46.16-.79.59-.79 1.11s.33.94.79 1.11v.81c0 .22.18.39.39.39s.39-.18.39-.39v-.81c.46-.16.79-.59.79-1.11s-.33-.94-.79-1.11V15l3.41-1.02c.17-.05.28-.2.28-.38 0-.17-.11-.33-.28-.38L26.02 8.91a.448.448 0 0 0-.23 0l-14.08 4.31c-.17.05-.28.21-.28.38s.12.33.28.38Zm24.18 5.84v-.01.03-.01Zm.79 0v.01-.03.01Zm-5.62 1.74c-.37.22-1.68.84-5.16.84s-4.81-.62-5.16-.83v-4.88l5.05 1.51s.08.02.11.02.08 0 .11-.02l5.05-1.51v4.88ZM25.92 9.7l12.71 3.89-2.37.71-10.3-1.15c-.21-.03-.41.13-.44.35-.02.22.13.41.35.44l8.45.94-8.41 2.51-12.71-3.8L25.91 9.7Z" style="fill:url(#a)"/></svg>