<svg xmlns="http://www.w3.org/2000/svg" data-name="Layer 3" viewBox="0 0 51.84 51.84"><defs><linearGradient id="a" x1="1.29" x2="52" y1="46.06" y2="8.22" gradientUnits="userSpaceOnUse"><stop offset="0" stop-color="#4162f1"/><stop offset="0" stop-color="#4162f1"/><stop offset=".5" stop-color="#e24321"/><stop offset="1" stop-color="#f8dd4b"/></linearGradient></defs><path d="M38.08 22.24c0-.86-.47-1.62-1.15-2.05.63-.44 1.04-1.16 1.04-1.98 0-1.38-1.2-2.47-2.57-2.4a2.755 2.755 0 0 0-2.71-3.21c-.57 0-1.11.18-1.57.5-.57-.6-1.36-.98-2.25-.98-.29 0-.57.04-.85.12a2.411 2.411 0 0 0-2.37-2.85c-1.33 0-2.41 1.08-2.41 2.41v.15c-.07 0-.14-.01-.21-.01-1.21 0-2.25.56-2.78 1.46-.39-.15-.77-.17-1.19-.17-1.71 0-3.1 1.39-3.1 3.1 0 .51.14 1 .37 1.44-1.47.22-2.61 1.48-2.61 3.01 0 1 .49 1.92 1.28 2.48v.12l4.21 18.74c.04.18.2.31.39.31h13.6c.18 0 .34-.13.39-.31l4.21-18.74v-.11c.16-.33.26-.68.26-1.04Zm-.95.67H26.94a1.58 1.58 0 0 1-.37-1.02c0-1.19 1.26-2.16 2.51-1.31.16.1.37.09.5-.05.13-.13.15-.35.04-.5-.21-.31-.32-.6-.32-.9 0-.89.73-1.62 1.62-1.62s1.62.73 1.62 1.62c0 .17-.05.35-.11.51-.04.13-.02.27.07.38.09.11.22.16.36.14.06 0 .11-.02.22-.05.49 0 .94.24 1.27.67.12.16.34.21.52.1.29-.17.55-.25.8-.25.89 0 1.62.73 1.62 1.62 0 .23-.07.46-.16.67Zm-15.88-3.59h-.17c-.06-.73-.45-1.36-1.02-1.77 0-.06-.02-.13-.02-.19 0-.89.73-1.62 1.62-1.62s1.62.73 1.63 1.55c-.01.03-.02.11-.03.14 0 .14.07.27.19.35.12.08.27.08.39.01.81-.44 1.48-.08 1.81.21.08.07.19.11.31.1s.21-.07.28-.16c.66-.92 2.02-.82 2.61 0-.2.35-.32.75-.32 1.18 0 .13.01.26.04.38-.12-.02-.24-.03-.36-.03-1.33 0-2.41 1.08-2.41 2.41 0 .36.09.71.24 1.02h-2.42c.14-.32.22-.67.22-1.03a2.57 2.57 0 0 0-2.57-2.57Zm4.78 4.38v17.95H22.4L21.11 23.7h4.92Zm6.68-10.31c1.08 0 1.96.88 1.96 1.96 0 .27-.07.54-.2.83-.07.15-.04.32.07.44.11.12.29.16.44.1 1.11-.45 2.23.4 2.23 1.5 0 .89-.73 1.62-1.62 1.62v.02a2.5 2.5 0 0 0-.81.19c-.4-.41-.9-.66-1.44-.71 0-.06.01-.13.01-.2 0-1.12-.77-2.05-1.8-2.32.28-.48.45-1.02.45-1.58 0-.54-.15-1.04-.39-1.48.33-.23.71-.35 1.11-.35Zm-13.62.63c.54 0 .84.04 1.16.24.1.07.22.08.34.04.11-.04.2-.12.25-.24.31-.83 1.16-1.34 2.22-1.34.17 0 .33.05.52.1l.1.03a.391.391 0 0 0 .48-.51c-.08-.21-.11-.38-.11-.54 0-.89.73-1.62 1.62-1.62s1.62.73 1.62 1.62c0 .42-.17.83-.47 1.13-.15.15-.15.39 0 .55.15.16.39.17.55.02.31-.28.83-.6 1.52-.6 1.28 0 2.31 1.04 2.31 2.31 0 .57-.21 1.11-.59 1.53-.48.06-.91.27-1.25.57a2.38 2.38 0 0 0-1.83-.87c-.63 0-1.22.26-1.67.72-.55-.35-1.19-.48-1.83-.29a2.422 2.422 0 0 0-2.36-1.92c-1.27 0-2.3.99-2.39 2.24-.19-.05-.38-.08-.59-.08-.54 0-1.05.19-1.48.54-.27-.38-.42-.84-.42-1.32 0-1.28 1.04-2.31 2.31-2.31Zm-4.55 6.78c0-1.25 1.02-2.27 2.27-2.27.02 0 .07.01.11.03.07.02.13.04.2.04.13.02.26-.03.35-.13.32-.36.75-.56 1.2-.56.89 0 1.62.73 1.6 1.71-.01.05-.03.1-.04.16a.4.4 0 0 0 .15.36c.1.09.26.11.39.08.17-.05.32-.1.47-.1.98 0 1.78.8 1.78 1.78 0 .37-.12.73-.33 1.03H16a2.288 2.288 0 0 1-1.46-2.12Zm1.37 2.9h4.41l1.29 17.95h-1.66L15.91 23.7Zm10.91 0h4.92l-1.29 17.95h-3.63V23.7Zm6.09 17.95h-1.66l1.29-17.95h4.41l-4.04 17.95Z" style="fill:url(#a)"/></svg>