<svg xmlns="http://www.w3.org/2000/svg" data-name="Layer 3" viewBox="0 0 51.84 51.84"><defs><linearGradient id="a" x1="39.72" x2="11.41" y1="54.51" y2="-.57" gradientUnits="userSpaceOnUse"><stop offset="0" stop-color="#4162f1"/><stop offset="0" stop-color="#4162f1"/><stop offset=".5" stop-color="#e24321"/><stop offset="1" stop-color="#f8dd4b"/></linearGradient></defs><path d="M11.81 10.33a.376.376 0 0 0-.33-.11c-.12.02-.23.09-.29.2-.12.22-2.93 5.37.39 8.69l9.04 9.03c.43.43 1.06.63 1.66.53l2.09-.35c.41-.07.83.09 1.08.43l9.29 12.5c.48.65 1.19 1.06 1.99 1.16.13.02.25.02.38.02.67 0 1.31-.22 1.83-.65a2.92 2.92 0 0 0 1.09-2.14c.04-.83-.27-1.65-.87-2.24L11.81 10.33Zm26.64 30.85c-.46.37-1.04.53-1.62.46-.58-.07-1.1-.38-1.45-.85l-9.29-12.5a1.89 1.89 0 0 0-1.52-.77c-.11 0-.21 0-.32.03l-2.09.35c-.35.06-.72-.06-.97-.31l-9.04-9.03c-2.36-2.36-1.07-5.98-.49-7.27l26.97 26.69c.43.43.67 1.03.63 1.64-.03.61-.32 1.18-.8 1.56ZM23.54 29.9l.58.53L14 41.57c-.49.54-1.16.85-1.89.87h-.06c-.71 0-1.37-.27-1.87-.78s-.8-1.21-.77-1.95.34-1.41.89-1.9l9.46-8.36.52.59-9.46 8.36a1.85 1.85 0 0 0-.09 2.7c.36.36.84.54 1.36.54.51-.01.98-.23 1.33-.61l10.12-11.14Zm4.29-7.76-.76-.23c.06-.2 1.48-4.84 3.11-6.6 1.36-1.47 5-4.49 6.92-5.84l.46.64c-1.87 1.32-5.5 4.33-6.79 5.73-1.51 1.63-2.92 6.25-2.94 6.29Zm4.68-4.96 5.97-5.97.56.56-5.97 5.97-.56-.56Zm9.21-2.9.64.46c-1.35 1.92-4.37 5.56-5.84 6.92-1.76 1.63-6.41 3.05-6.6 3.11l-.23-.76s4.67-1.43 6.29-2.94c1.4-1.29 4.41-4.92 5.73-6.79Zm-7.62 4.49 5.97-5.97.56.56-5.97 5.97-.56-.56Z" style="fill:url(#a)"/></svg>