<svg xmlns="http://www.w3.org/2000/svg" data-name="Layer 3" viewBox="0 0 51.84 51.84"><defs><linearGradient id="a" x1="18.35" x2="36.37" y1="3.73" y2="57.01" gradientUnits="userSpaceOnUse"><stop offset="0" stop-color="#4162f1"/><stop offset="0" stop-color="#4162f1"/><stop offset=".5" stop-color="#e24321"/><stop offset="1" stop-color="#f8dd4b"/></linearGradient></defs><path d="M42.61 22.92v5.81c0 .18-.12.34-.29.38l-4.27 1.14-.2-.76 3.98-1.06v-5.2l-3.98-1.06a.373.373 0 0 1-.27-.26c-.18-.55-.41-1.1-.67-1.62a.424.424 0 0 1 .01-.38l2.06-3.56-3.68-3.68-3.56 2.06c-.12.07-.26.07-.38.01a11.5 11.5 0 0 0-1.62-.67.392.392 0 0 1-.26-.27l-1.06-3.97h-5.2l-1.06 3.98c-.03.13-.13.23-.26.27-.55.18-1.1.41-1.62.67-.12.06-.26.05-.38-.01l-3.56-2.06-3.68 3.68 2.06 3.56c.07.12.07.26.01.38-.26.52-.49 1.07-.67 1.62-.04.13-.14.22-.27.26l-3.98 1.06v5.2l3.98 1.06c.13.03.23.13.27.26.19.56.41 1.1.67 1.62.06.12.05.26-.01.38l-2.06 3.56L16.34 39l3.56-2.06c.12-.07.26-.07.38-.01.52.26 1.06.49 1.62.67.13.04.22.14.26.27l1.06 3.98h5.2l1.06-3.98.76.2-1.14 4.27c-.05.17-.2.29-.38.29h-5.81c-.18 0-.34-.12-.38-.29l-1.08-4.06c-.45-.16-.9-.34-1.33-.55l-3.64 2.11c-.16.09-.35.06-.48-.06l-4.11-4.11a.393.393 0 0 1-.06-.48l2.11-3.64c-.21-.43-.39-.87-.55-1.33l-4.07-1.08a.396.396 0 0 1-.29-.38v-5.81c0-.18.12-.34.29-.38l4.07-1.08c.16-.45.34-.9.55-1.33l-2.11-3.64a.408.408 0 0 1 .06-.48L16 11.93c.13-.13.32-.15.48-.06l3.64 2.11c.43-.21.88-.39 1.33-.55l1.08-4.07c.05-.17.2-.29.38-.29h5.81c.18 0 .34.12.38.29l1.08 4.06c.45.16.9.34 1.33.55l3.64-2.11c.16-.09.35-.06.48.06l4.11 4.11c.13.13.15.32.06.48l-2.11 3.64c.21.43.39.88.55 1.33l4.07 1.08c.17.05.29.2.29.38Zm-1.9 11.58c.15.15.15.4 0 .56l-5.65 5.65c-.08.08-.18.12-.28.12s-.2-.04-.28-.12l-7.39-7.39A7.77 7.77 0 0 1 18.08 24c.03-.14.14-.25.27-.29.14-.04.29 0 .39.1l4.66 4.66 4.01-1.06 1.06-4.01-4.66-4.66c-.1-.1-.14-.25-.1-.39s.15-.24.29-.27c2.61-.57 5.29.21 7.17 2.09a7.747 7.747 0 0 1 2.14 6.95l7.39 7.39Zm-.84.28-7.26-7.26a.426.426 0 0 1-.11-.36 6.974 6.974 0 0 0-7.59-8.43l4.28 4.28c.1.1.14.24.1.38l-1.17 4.45a.38.38 0 0 1-.28.28l-4.45 1.17a.38.38 0 0 1-.38-.1l-4.28-4.28c-.23 2.11.49 4.2 2 5.71a6.951 6.951 0 0 0 6.43 1.88h.08c.1 0 .2.04.28.12l7.26 7.26 5.09-5.09Z" style="fill:url(#a)"/></svg>