<svg xmlns="http://www.w3.org/2000/svg" data-name="Layer 3" viewBox="0 0 51.84 51.84"><defs><linearGradient id="a" x1="47.24" x2="6.05" y1="2.52" y2="50.91" gradientUnits="userSpaceOnUse"><stop offset="0" stop-color="#4162f1"/><stop offset="0" stop-color="#4162f1"/><stop offset=".5" stop-color="#e24321"/><stop offset="1" stop-color="#f8dd4b"/></linearGradient></defs><path d="M19.49 20.12v3.35c0 .48.39.87.87.87h2.84s.08.04.08.08v2.84c0 .48.39.87.87.87h3.35c.48 0 .87-.39.87-.87v-2.84s.04-.08.08-.08h2.84c.48 0 .87-.39.87-.87v-3.35a.87.87 0 0 0-.87-.87h-2.84s-.08-.04-.08-.08v-2.84a.87.87 0 0 0-.87-.87h-3.35a.87.87 0 0 0-.87.87v2.84s-.04.08-.08.08h-2.84a.87.87 0 0 0-.87.87Zm4.58-.94v-2.84s.04-.08.08-.08h3.35s.08.04.08.08v2.84c0 .48.39.87.87.87h2.84s.08.03.08.08v3.35s-.04.08-.08.08h-2.84a.87.87 0 0 0-.87.87v2.84s-.04.08-.08.08h-3.35s-.08-.04-.08-.08v-2.84a.87.87 0 0 0-.87-.87h-2.84s-.08-.04-.08-.08v-3.35s.03-.08.08-.08h2.84c.48 0 .87-.39.87-.87Zm18.28 13.13c0-1.81-1.48-3.29-3.29-3.29s-3.29 1.48-3.29 3.29c0 1.68 1.27 3.05 2.9 3.25v5.69c0 .47-.38.86-.86.86H12.04c-1.07 0-1.95-.87-1.95-1.95s.87-1.95 1.95-1.95h12.6c.87 0 1.57-.71 1.57-1.57V35.2C41 25.14 39.76 16.3 39.36 14.62c-1.08-4.53-5.28-5.18-5.51-5.22l-3.69-.64c-.44-.08-.9.07-1.22.38-.32.32-.46.77-.38 1.22l.24 1.4c.09.49.42.89.89 1.06a1.359 1.359 0 0 0 1.36-.23l2.84-2.37c.74.14 3.82.92 4.7 4.59 1.05 4.37-1.69 12.14-12.78 19.7-11.09-7.56-13.82-15.33-12.78-19.7.88-3.67 3.96-4.46 4.7-4.59l2.84 2.37a1.362 1.362 0 0 0 1.36.23c.47-.17.8-.57.89-1.06l.24-1.4c.08-.44-.07-.9-.38-1.22-.32-.32-.78-.46-1.22-.38l-3.69.64c-.23.03-4.43.68-5.51 5.22-.4 1.68-1.64 10.52 13.15 20.57v1.44c0 .43-.35.78-.78.78h-12.6c-1.51 0-2.74 1.23-2.74 2.74s1.23 2.74 2.74 2.74H37.8c.91 0 1.64-.74 1.64-1.64v-5.69c1.63-.2 2.89-1.57 2.89-3.25Zm-11.8-20.32c-.16.14-.38.18-.58.1a.583.583 0 0 1-.38-.46l-.24-1.4a.596.596 0 0 1 .59-.69h.1l2.85.5-2.33 1.94Zm-8.94-2.44c.19-.03.38.03.52.17s.2.33.17.52l-.24 1.4c-.04.21-.18.38-.38.46-.2.08-.42.04-.58-.1l-2.33-1.94 2.85-.5Zm17.45 25.26a2.5 2.5 0 0 1 0-5 2.5 2.5 0 0 1 0 5Zm0-3.97c-.81 0-1.47.66-1.47 1.47s.66 1.47 1.47 1.47 1.47-.66 1.47-1.47-.66-1.47-1.47-1.47Zm0 2.15a.68.68 0 1 1 .001-1.361.68.68 0 0 1-.001 1.361Z" style="fill:url(#a)"/></svg>