<svg xmlns="http://www.w3.org/2000/svg" data-name="Layer 3" viewBox="0 0 51.84 51.84"><defs><linearGradient id="a" x1="-2.56" x2="49.18" y1="31.4" y2="22.9" gradientUnits="userSpaceOnUse"><stop offset="0" stop-color="#4162f1"/><stop offset="0" stop-color="#4162f1"/><stop offset=".5" stop-color="#e24321"/><stop offset="1" stop-color="#f8dd4b"/></linearGradient></defs><path d="M20.23 26.33h11.38v.79H20.23v-.79Zm1.38 3.49h8.63v-.79h-8.63v.79Zm22.61-9.55c-.05.13-.64 1.28-2.5 1.28h-1.71c.06.13.13.26.19.4.52 1.08 1.12 2.3 1.57 2.91.65.87.92 1.94.75 3.02-.22 1.48-.47 3.76-.39 6.2.01.38-.1.73-.31 1.04v3.01c0 .88-.71 1.59-1.59 1.59h-2.7c-.88 0-1.59-.71-1.59-1.59v-2.25H15.9v2.25c0 .88-.71 1.59-1.59 1.59h-2.7c-.88 0-1.59-.71-1.59-1.59v-3.01c-.21-.3-.33-.66-.31-1.04.07-2.44-.17-4.71-.39-6.19-.16-1.08.11-2.15.75-3.02.45-.61 1.05-1.83 1.57-2.91.07-.14.13-.26.19-.4h-1.71c-1.85 0-2.44-1.15-2.46-1.2-.13-.51-.05-.96.19-1.33.24-.37.63-.62 1.06-.69l1.67-.29c.61-.11 1.24.16 1.59.68l.63.93 2.91-5.71c.29-.56.81-.96 1.42-1.1 1.21-.26 3.95-.69 8.79-.69s7.59.43 8.79.69c.62.13 1.14.53 1.42 1.1l2.91 5.71.63-.93c.35-.52.98-.79 1.59-.68l1.67.29c.44.08.81.32 1.06.69.24.37.32.82.22 1.25Zm-30.51-.69h24.43l-2.7-5.3c-.18-.35-.5-.6-.89-.69-1.17-.25-3.86-.68-8.63-.68s-7.45.42-8.63.68c-.38.08-.71.33-.89.68l-2.7 5.3Zm-1.49 1.18s.01-.03.02-.04l.14-.28-.87-1.29a.812.812 0 0 0-.8-.34l-1.67.29a.78.78 0 0 0-.53.35c-.12.19-.16.41-.11.63s.44.68 1.73.68h2.11Zm2.89 15.11h-4.3v2.25c0 .44.36.8.8.8h2.7c.44 0 .8-.36.8-.8v-2.25Zm20.83-.79h1.04l-1-1.12a3.13 3.13 0 0 0-2.33-1.04H18.2c-.89 0-1.74.38-2.33 1.04l-1 1.12h21.09Zm5.1.79h-4.3v2.25c0 .44.36.8.8.8h2.7c.44 0 .8-.36.8-.8v-2.25Zm-1.55-13.58c-.21-.44-.42-.86-.6-1.2l-.36-.71H13.31l-.36.71c-.18.35-.38.77-.6 1.21-.54 1.11-1.15 2.37-1.65 3.03-.52.7-.74 1.56-.61 2.44.22 1.51.48 3.84.4 6.33 0 .26.09.5.27.69.19.19.43.3.7.3h2.34l1.48-1.65c.74-.83 1.81-1.3 2.92-1.3h15.45c1.11 0 2.18.48 2.92 1.3l1.48 1.65h2.34c.27 0 .52-.11.7-.3.18-.19.28-.43.27-.69-.08-2.49.18-4.82.4-6.33.13-.87-.09-1.74-.61-2.44-.5-.67-1.11-1.93-1.65-3.03Zm3.99-2.3c.02-.13-.02-.35-.14-.54a.78.78 0 0 0-.53-.35l-1.67-.29a.804.804 0 0 0-.8.34l-.87 1.29.14.28s.01.02.02.03h2.11c1.34 0 1.74-.73 1.76-.76Zm-4.67 3.95.8 1.76c.11.25.11.54 0 .79-.12.25-.33.44-.6.51l-3.87 1.14a.954.954 0 0 1-.96-.26.955.955 0 0 1-.21-.98c1-2.83 3.02-3.4 3.84-3.51.41-.06.83.16 1 .55Zm.08 2.09-.8-1.76c-.03-.06-.08-.1-.15-.1h-.02c-.84.12-2.38.66-3.21 3-.03.09.01.15.04.18.02.03.08.07.16.04l3.87-1.14c.06-.02.09-.06.1-.09.01-.03.03-.08 0-.14Zm-21.02.87c.12.34.04.72-.21.98a.954.954 0 0 1-.96.26L12.83 27a.98.98 0 0 1-.6-.51.912.912 0 0 1 0-.79l.8-1.76c.18-.39.59-.61 1-.55.82.11 2.83.69 3.84 3.51Zm-.74.27c-.83-2.33-2.36-2.88-3.2-3h-.02c-.06 0-.12.04-.15.1l-.8 1.76c-.03.06-.01.11 0 .14.01.02.04.07.1.09l3.88 1.14c.08.02.14-.02.16-.04.02-.02.07-.09.04-.17Z" style="fill:url(#a)"/></svg>