<svg xmlns="http://www.w3.org/2000/svg" data-name="Layer 3" viewBox="0 0 51.84 51.84"><defs><linearGradient id="a" x1="3.53" x2="49.09" y1="51.28" y2="4.18" gradientUnits="userSpaceOnUse"><stop offset="0" stop-color="#4162f1"/><stop offset="0" stop-color="#4162f1"/><stop offset=".5" stop-color="#e24321"/><stop offset="1" stop-color="#f8dd4b"/></linearGradient></defs><path d="M45.4 30.84a.433.433 0 0 0-.22-.24c-1.65-.71-3.39-1.09-5.2-1.15 1.32-2.52 2.04-5.38 2.07-8.39 0-.11-.04-.21-.12-.28-.07-.08-.14-.09-.28-.12-1.83.02-3.6.36-5.27.97-.06-1.9-.4-3.79-1.04-5.61a.397.397 0 0 0-.21-.23.415.415 0 0 0-.31 0 16.38 16.38 0 0 0-4.93 3.23c-.8-2.36-2.03-4.55-3.67-6.43-.15-.17-.45-.17-.59 0a19.067 19.067 0 0 0-3.67 6.43 16.38 16.38 0 0 0-4.93-3.23.415.415 0 0 0-.31 0c-.1.04-.18.13-.21.23a18.72 18.72 0 0 0-1.04 5.61c-1.67-.61-3.44-.95-5.28-.97-.1 0-.21.04-.28.12s-.12.18-.12.28c.03 3.01.75 5.87 2.07 8.39-1.8.07-3.55.44-5.2 1.15-.1.04-.18.13-.22.24-.04.11-.03.22.03.32a16.15 16.15 0 0 0 8.6 7.3c1.72.62 3.49.93 5.24.93 1.93 0 3.83-.38 5.61-1.12 1.78.74 3.69 1.12 5.61 1.12 1.75 0 3.53-.31 5.24-.92 3.65-1.31 6.7-3.9 8.6-7.3.05-.1.07-.21.03-.32Zm-8.63 1.82a14.93 14.93 0 0 1-9.99 4.73c2.51-3.17 3.95-7.1 4.12-11.24 2.75-2.89 6.41-4.55 10.36-4.69-.13 4.28-1.71 8.24-4.49 11.2Zm-2.04-15.97c.55 1.71.84 3.47.87 5.24-1.72.73-3.29 1.78-4.69 3.1a19.98 19.98 0 0 0-.77-5.19c1.34-1.32 2.87-2.39 4.58-3.16Zm-8.81-3.23c2.73 3.29 4.22 7.49 4.22 11.89s-1.5 8.6-4.22 11.89c-2.73-3.29-4.22-7.49-4.22-11.89s1.5-8.6 4.22-11.89Zm-8.81 3.23c1.71.77 3.25 1.84 4.58 3.16a19.98 19.98 0 0 0-.77 5.19 15.835 15.835 0 0 0-4.68-3.1c.03-1.77.32-3.53.87-5.24Zm3.83 9.47c.17 4.14 1.61 8.07 4.12 11.24-3.81-.25-7.33-1.9-9.99-4.73-2.77-2.96-4.36-6.92-4.49-11.2 3.95.14 7.61 1.8 10.36 4.69Zm-5.61 11.55c-3.33-1.2-6.14-3.51-7.96-6.55 1.56-.61 3.21-.92 4.91-.94.63 1.07 1.36 2.07 2.21 2.98 2.55 2.72 5.86 4.41 9.48 4.88-2.79.76-5.79.65-8.64-.37Zm21.18 0c-2.84 1.02-5.85 1.14-8.64.37 3.61-.48 6.92-2.16 9.48-4.88.85-.91 1.58-1.91 2.21-2.98 1.71.03 3.35.32 4.91.93a15.28 15.28 0 0 1-7.96 6.55Z" style="fill:url(#a)"/></svg>