<svg xmlns="http://www.w3.org/2000/svg" data-name="Layer 3" viewBox="0 0 51.84 51.84"><defs><linearGradient id="a" x1="5.61" x2="49.11" y1="4.89" y2="53.03" gradientUnits="userSpaceOnUse"><stop offset="0" stop-color="#4162f1"/><stop offset="0" stop-color="#4162f1"/><stop offset=".5" stop-color="#e24321"/><stop offset="1" stop-color="#f8dd4b"/></linearGradient></defs><path d="M39.82 16.96H32.8v-2.88c0-.9-.73-1.63-1.63-1.63H20.66c-.9 0-1.63.73-1.63 1.63v2.88h-7.02c-1.03 0-1.87.84-1.87 1.87v3.97c0 .39.14.76.39 1.05.16.19.41.45.75.76v12.34c0 1.34 1.09 2.43 2.43 2.43h24.4c1.34 0 2.43-1.09 2.43-2.43V24.61c.34-.31.59-.57.75-.76.25-.29.39-.66.39-1.05v-3.97c0-1.03-.84-1.87-1.87-1.87Zm-20-2.87c0-.46.38-.84.84-.84h10.51c.46 0 .84.38.84.84v2.88H19.82v-2.88Zm19.94 22.86c0 .9-.74 1.64-1.64 1.64h-24.4c-.9 0-1.64-.74-1.64-1.64v-11.7c1.87 1.4 5.37 3.21 11.28 3.63v.02c0 1.41 1.15 2.56 2.56 2.56s2.56-1.15 2.56-2.56v-.02c5.9-.41 9.41-2.22 11.28-3.63v11.7ZM24.15 28.9v-1.77h3.55v1.77c0 .98-.8 1.77-1.77 1.77s-1.77-.8-1.77-1.77Zm16.75-6.1c0 .2-.07.39-.2.54-.85.98-4.2 4.18-12.22 4.75v-1.75h-5.13v1.75c-8.02-.57-11.37-3.77-12.22-4.75a.82.82 0 0 1-.2-.54v-3.97c0-.59.48-1.08 1.08-1.08h27.8c.59 0 1.08.48 1.08 1.08v3.97Z" style="fill:url(#a)"/></svg>